<svg xmlns="http://www.w3.org/2000/svg" xmlns:xlink="http://www.w3.org/1999/xlink" width="270" zoomAndPan="magnify" viewBox="0 0 202.5 30.000001" height="40" preserveAspectRatio="xMidYMid meet" version="1.0"><defs><g/><clipPath id="d6c509f975"><path d="M 185 6 L 198.992188 6 L 198.992188 21 L 185 21 Z M 185 6 " clip-rule="nonzero"/></clipPath></defs><g fill="#ffffff" fill-opacity="1"><g transform="translate(3.06, 20.223571)"><g><path d="M 2.578125 0.0625 L 2.234375 0.03125 L 1.640625 -0.15625 L 1.421875 -0.515625 L 1.453125 -4.09375 L 1.40625 -4.453125 L 1.421875 -9.453125 L 1.390625 -9.828125 L 1.46875 -10.59375 L 1.453125 -12.921875 L 1.625 -13.234375 L 2.03125 -13.453125 L 2.4375 -13.53125 L 2.78125 -13.46875 L 3.203125 -13.453125 L 4.40625 -13.53125 L 4.78125 -13.46875 L 5.96875 -13.453125 L 6.390625 -13.515625 L 7 -13.53125 L 7.578125 -13.515625 L 7.96875 -13.375 L 8.359375 -13.375 L 8.6875 -13.234375 L 9.453125 -13 L 10.09375 -12.578125 L 10.953125 -11.828125 L 11.421875 -11.1875 L 11.796875 -10.53125 L 12.015625 -9.828125 L 12.078125 -9.390625 L 12.15625 -9.0625 L 12.125 -7.484375 L 12 -7.171875 L 11.9375 -6.75 L 11.609375 -6 L 11.21875 -5.390625 L 10.953125 -5.09375 L 10.703125 -4.84375 L 10.4375 -4.53125 L 10.15625 -4.296875 L 8.3125 -3.5625 L 6.328125 -3.421875 L 5.921875 -3.5 L 5.5 -3.453125 L 5.0625 -3.234375 L 4.875 -2.890625 L 4.90625 -2.453125 L 4.859375 -2.078125 L 4.90625 -1.375 L 4.875 -0.953125 L 4.90625 -0.5625 L 4.734375 -0.15625 L 4.328125 0 L 3.875 0.03125 L 3.53125 0.015625 Z M 5.484375 -6.546875 L 5.9375 -6.578125 L 6.921875 -6.5625 L 7.53125 -6.640625 L 7.828125 -6.734375 L 8.140625 -6.96875 L 8.390625 -7.28125 L 8.5625 -7.578125 L 8.703125 -7.9375 L 8.734375 -8.453125 L 8.703125 -9 L 8.640625 -9.34375 L 8.453125 -9.71875 L 8.203125 -9.96875 L 7.890625 -10.1875 L 7.5 -10.359375 L 5.5 -10.421875 L 5.09375 -10.234375 L 4.90625 -9.859375 L 4.90625 -9.0625 L 4.859375 -8.671875 L 4.921875 -7.09375 L 5.09375 -6.765625 Z M 5.484375 -6.546875 "/></g></g></g><g fill="#ffffff" fill-opacity="1"><g transform="translate(15.752523, 20.223571)"><g><path d="M 6.640625 0.25 L 6.015625 0.21875 L 5.640625 0.21875 L 4.875 0.0625 L 4.15625 -0.265625 L 3.859375 -0.4375 L 3.46875 -0.625 L 2.859375 -1.015625 L 2.5625 -1.28125 L 2.328125 -1.546875 L 1.890625 -2.234375 L 1.578125 -2.890625 L 1.390625 -3.6875 L 1.28125 -5.234375 L 1.328125 -8.34375 L 1.296875 -8.703125 L 1.34375 -9.09375 L 1.296875 -11.796875 L 1.328125 -12.09375 L 1.328125 -12.5625 L 1.296875 -12.953125 L 1.546875 -13.3125 L 1.953125 -13.46875 L 2.359375 -13.53125 L 3.1875 -13.453125 L 3.5625 -13.515625 L 3.9375 -13.515625 L 4.34375 -13.328125 L 4.578125 -12.90625 L 4.609375 -12.34375 L 4.578125 -11.734375 L 4.609375 -11.4375 L 4.546875 -5.234375 L 4.671875 -4.109375 L 4.78125 -3.75 L 5.015625 -3.4375 L 5.328125 -3.203125 L 5.65625 -3.015625 L 6.09375 -2.90625 L 7.25 -2.90625 L 7.9375 -3.171875 L 8.265625 -3.390625 L 8.46875 -3.78125 L 8.59375 -4.078125 L 8.71875 -5.265625 L 8.6875 -12.875 L 8.890625 -13.296875 L 9.296875 -13.484375 L 10.109375 -13.4375 L 11.328125 -13.46875 L 11.75 -13.328125 L 12 -12.921875 L 11.9375 -12.546875 L 11.9375 -10.9375 L 11.984375 -10.625 L 11.9375 -10.203125 L 11.984375 -9.84375 L 11.984375 -4.625 L 11.890625 -3.703125 L 11.71875 -2.890625 L 11.515625 -2.5625 L 11.40625 -2.1875 L 10.953125 -1.5 L 10.421875 -0.96875 L 9.78125 -0.546875 L 9.09375 -0.171875 L 7.578125 0.21875 L 7.21875 0.1875 Z M 6.640625 0.25 "/></g></g></g><g fill="#ffffff" fill-opacity="1"><g transform="translate(29.062312, 20.223571)"><g><path d="M 1.46875 -0.6875 L 1.453125 -7.9375 L 1.40625 -8.296875 L 1.390625 -8.71875 L 1.453125 -9.4375 L 1.40625 -9.828125 L 1.453125 -10.1875 L 1.453125 -12.890625 L 1.625 -13.3125 L 2.03125 -13.46875 L 2.390625 -13.53125 L 3.171875 -13.453125 L 3.546875 -13.53125 L 4.296875 -13.53125 L 4.6875 -13.296875 L 4.875 -12.875 L 4.859375 -12.5 L 4.921875 -11.40625 L 4.875 -10.625 L 4.921875 -10.171875 L 4.90625 -3.625 L 5.0625 -3.234375 L 5.4375 -3.09375 L 5.84375 -3.125 L 6.59375 -3.09375 L 6.953125 -3.140625 L 7.328125 -3.0625 L 8.125 -3.09375 L 8.53125 -3.03125 L 8.890625 -3.109375 L 9.296875 -3.140625 L 9.65625 -2.90625 L 9.828125 -2.328125 L 9.84375 -0.765625 L 9.625 -0.171875 L 9.265625 0.015625 L 5.4375 0 L 5.015625 0.03125 L 4.65625 -0.015625 L 3.921875 0.015625 L 3.171875 -0.015625 L 2.359375 0.03125 L 1.96875 0 L 1.609375 -0.1875 Z M 1.46875 -0.6875 "/></g></g></g><g fill="#ffffff" fill-opacity="1"><g transform="translate(39.440086, 20.223571)"><g><path d="M 6.46875 0.078125 L 6.078125 -0.015625 L 5.140625 -0.015625 L 4.546875 0.0625 L 3.78125 -0.015625 L 3.390625 0.015625 L 2.796875 0.03125 L 2.234375 -0.03125 L 1.875 0 L 1.5 0 L 1.125 -0.171875 L 0.921875 -0.6875 L 0.984375 -2.46875 L 1.203125 -2.8125 L 2.46875 -3.203125 L 2.6875 -3.78125 L 2.625 -9.703125 L 2.453125 -10.234375 L 2.078125 -10.453125 L 1.703125 -10.453125 L 1.28125 -10.671875 L 1.0625 -11.0625 L 1.09375 -11.421875 L 1.046875 -12.859375 L 1.234375 -13.3125 L 1.625 -13.515625 L 2.0625 -13.515625 L 2.4375 -13.453125 L 4.015625 -13.453125 L 4.40625 -13.53125 L 4.75 -13.484375 L 7.078125 -13.484375 L 7.421875 -13.28125 L 7.65625 -12.90625 L 7.640625 -11 L 7.453125 -10.6875 L 7.046875 -10.53125 L 6.65625 -10.484375 L 6.234375 -10.296875 L 6.09375 -9.859375 L 6.015625 -7.90625 L 6.09375 -6.515625 L 6.0625 -6.09375 L 6.078125 -3.96875 L 6.015625 -3.609375 L 6.25 -3.171875 L 6.71875 -3.015625 L 7.125 -3.015625 L 7.546875 -2.796875 L 7.78125 -2.4375 L 7.78125 -0.515625 L 7.578125 -0.15625 L 7.234375 0.03125 Z M 6.46875 0.078125 "/></g></g></g><g fill="#ffffff" fill-opacity="1"><g transform="translate(48.197546, 20.223571)"><g><path d="M 11.390625 -0.328125 L 11.09375 -0.578125 L 10.59375 -1.140625 L 7.609375 -4.109375 L 7.28125 -4.328125 L 7.03125 -4.609375 L 5.65625 -5.921875 L 5.40625 -6.25 L 5.15625 -6.34375 L 5.015625 -6.015625 L 4.984375 -5.640625 L 4.953125 -0.75 L 4.765625 -0.15625 L 4.375 0.03125 L 3.96875 0.0625 L 3.21875 0 L 2.796875 0.03125 L 2 0 L 1.609375 -0.140625 L 1.421875 -0.5 L 1.390625 -2.125 L 1.421875 -2.484375 L 1.390625 -5.65625 L 1.453125 -5.984375 L 1.40625 -6.765625 L 1.421875 -7.09375 L 1.421875 -12.953125 L 1.609375 -13.3125 L 2.046875 -13.515625 L 2.625 -13.375 L 3.0625 -13.140625 L 3.359375 -12.90625 L 7.15625 -9.0625 L 7.703125 -8.640625 L 9.0625 -7.28125 L 9.359375 -7.140625 L 9.46875 -7.46875 L 9.515625 -10.921875 L 9.46875 -11.34375 L 9.53125 -12.15625 L 9.46875 -12.46875 L 9.5 -12.875 L 9.703125 -13.28125 L 10.078125 -13.484375 L 12.46875 -13.515625 L 12.859375 -13.296875 L 13.046875 -12.90625 L 13.109375 -10.234375 L 13.046875 -9.765625 L 13.046875 -7.859375 L 13.109375 -7.53125 L 13.0625 -0.484375 L 12.875 -0.09375 L 12.453125 0.03125 L 11.90625 -0.015625 Z M 11.390625 -0.328125 "/></g></g></g><g fill="#ffffff" fill-opacity="1"><g transform="translate(62.741865, 20.223571)"><g><path d="M 5.9375 0.0625 L 5.15625 -0.015625 L 4.765625 0.03125 L 2.40625 0 L 2.03125 0.03125 L 1.640625 -0.15625 L 1.453125 -0.75 L 1.453125 -1.734375 L 1.40625 -2.109375 L 1.421875 -12.890625 L 1.609375 -13.296875 L 2.03125 -13.46875 L 2.40625 -13.453125 L 2.765625 -13.515625 L 7.15625 -13.46875 L 8.296875 -13.296875 L 8.703125 -13.203125 L 9.03125 -13.046875 L 9.421875 -12.96875 L 9.78125 -12.75 L 10.765625 -12.09375 L 11.796875 -10.953125 L 12.453125 -9.9375 L 12.59375 -9.578125 L 12.859375 -8.84375 L 13.125 -7.3125 L 13.140625 -6.75 L 13.078125 -6.140625 L 13.078125 -5.734375 L 13.03125 -5.34375 L 12.90625 -5.015625 L 12.828125 -4.609375 L 12.734375 -4.25 L 12.421875 -3.5 L 12.203125 -3.1875 L 12 -2.796875 L 11.0625 -1.578125 L 9.765625 -0.71875 L 8.859375 -0.328125 L 8.0625 -0.1875 L 7.5 -0.015625 L 7.125 -0.015625 L 6.515625 0.0625 Z M 5.890625 -3.109375 L 6.46875 -3.125 L 7.296875 -3.21875 L 7.859375 -3.390625 L 8.515625 -3.828125 L 9.21875 -4.625 L 9.546875 -5.34375 L 9.75 -6.703125 L 9.4375 -8.390625 L 9.265625 -8.734375 L 9.0625 -9.0625 L 8.78125 -9.421875 L 8.484375 -9.6875 L 8.203125 -9.90625 L 7.859375 -10.078125 L 7.09375 -10.28125 L 6.546875 -10.34375 L 5.734375 -10.328125 L 5.109375 -10.1875 L 4.921875 -9.75 L 4.875 -9.421875 L 4.921875 -6.75 L 4.84375 -5.796875 L 4.921875 -4.84375 L 4.90625 -4.046875 L 4.921875 -3.71875 L 5.078125 -3.359375 L 5.515625 -3.140625 Z M 5.890625 -3.109375 "/></g></g></g><g fill="#ffffff" fill-opacity="1"><g transform="translate(76.765369, 20.223571)"><g><path d="M 6.46875 0.078125 L 6.078125 -0.015625 L 5.140625 -0.015625 L 4.546875 0.0625 L 3.78125 -0.015625 L 3.390625 0.015625 L 2.796875 0.03125 L 2.234375 -0.03125 L 1.875 0 L 1.5 0 L 1.125 -0.171875 L 0.921875 -0.6875 L 0.984375 -2.46875 L 1.203125 -2.8125 L 2.46875 -3.203125 L 2.6875 -3.78125 L 2.625 -9.703125 L 2.453125 -10.234375 L 2.078125 -10.453125 L 1.703125 -10.453125 L 1.28125 -10.671875 L 1.0625 -11.0625 L 1.09375 -11.421875 L 1.046875 -12.859375 L 1.234375 -13.3125 L 1.625 -13.515625 L 2.0625 -13.515625 L 2.4375 -13.453125 L 4.015625 -13.453125 L 4.40625 -13.53125 L 4.75 -13.484375 L 7.078125 -13.484375 L 7.421875 -13.28125 L 7.65625 -12.90625 L 7.640625 -11 L 7.453125 -10.6875 L 7.046875 -10.53125 L 6.65625 -10.484375 L 6.234375 -10.296875 L 6.09375 -9.859375 L 6.015625 -7.90625 L 6.09375 -6.515625 L 6.0625 -6.09375 L 6.078125 -3.96875 L 6.015625 -3.609375 L 6.25 -3.171875 L 6.71875 -3.015625 L 7.125 -3.015625 L 7.546875 -2.796875 L 7.78125 -2.4375 L 7.78125 -0.515625 L 7.578125 -0.15625 L 7.234375 0.03125 Z M 6.46875 0.078125 "/></g></g></g><g fill="#000000" fill-opacity="1"><g transform="translate(85.530126, 20.223571)"><g/></g></g><g fill="#3c280d" fill-opacity="1"><g transform="translate(90.758366, 20.223571)"><g><path d="M 5.9375 0.0625 L 5.15625 -0.015625 L 4.765625 0.03125 L 2.40625 0 L 2.03125 0.03125 L 1.640625 -0.15625 L 1.453125 -0.75 L 1.453125 -1.734375 L 1.40625 -2.109375 L 1.421875 -12.890625 L 1.609375 -13.296875 L 2.03125 -13.46875 L 2.40625 -13.453125 L 2.765625 -13.515625 L 7.15625 -13.46875 L 8.296875 -13.296875 L 8.703125 -13.203125 L 9.03125 -13.046875 L 9.421875 -12.96875 L 9.78125 -12.75 L 10.765625 -12.09375 L 11.796875 -10.953125 L 12.453125 -9.9375 L 12.59375 -9.578125 L 12.859375 -8.84375 L 13.125 -7.3125 L 13.140625 -6.75 L 13.078125 -6.140625 L 13.078125 -5.734375 L 13.03125 -5.34375 L 12.90625 -5.015625 L 12.828125 -4.609375 L 12.734375 -4.25 L 12.421875 -3.5 L 12.203125 -3.1875 L 12 -2.796875 L 11.0625 -1.578125 L 9.765625 -0.71875 L 8.859375 -0.328125 L 8.0625 -0.1875 L 7.5 -0.015625 L 7.125 -0.015625 L 6.515625 0.0625 Z M 5.890625 -3.109375 L 6.46875 -3.125 L 7.296875 -3.21875 L 7.859375 -3.390625 L 8.515625 -3.828125 L 9.21875 -4.625 L 9.546875 -5.34375 L 9.75 -6.703125 L 9.4375 -8.390625 L 9.265625 -8.734375 L 9.0625 -9.0625 L 8.78125 -9.421875 L 8.484375 -9.6875 L 8.203125 -9.90625 L 7.859375 -10.078125 L 7.09375 -10.28125 L 6.546875 -10.34375 L 5.734375 -10.328125 L 5.109375 -10.1875 L 4.921875 -9.75 L 4.875 -9.421875 L 4.921875 -6.75 L 4.84375 -5.796875 L 4.921875 -4.84375 L 4.90625 -4.046875 L 4.921875 -3.71875 L 5.078125 -3.359375 L 5.515625 -3.140625 Z M 5.890625 -3.109375 "/></g></g></g><g fill="#3c280d" fill-opacity="1"><g transform="translate(104.78187, 20.223571)"><g><path d="M 1.40625 -0.546875 L 1.46875 -2.125 L 1.40625 -2.46875 L 1.40625 -8.234375 L 1.453125 -8.625 L 1.421875 -9.09375 L 1.46875 -9.828125 L 1.390625 -10.609375 L 1.421875 -11 L 1.390625 -12.5 L 1.421875 -12.921875 L 1.625 -13.3125 L 2.046875 -13.515625 L 3.953125 -13.46875 L 4.375 -13.515625 L 4.78125 -13.296875 L 4.953125 -12.921875 L 5 -12.21875 L 4.953125 -11.796875 L 4.9375 -10.28125 L 4.953125 -9.9375 L 4.953125 -9.53125 L 4.984375 -9.109375 L 5.171875 -8.734375 L 5.53125 -8.5625 L 6.671875 -8.546875 L 7.03125 -8.59375 L 7.421875 -8.546875 L 8.1875 -8.625 L 8.546875 -8.5625 L 8.9375 -8.78125 L 9.140625 -9.171875 L 9.171875 -10.671875 L 9.109375 -11.03125 L 9.140625 -11.828125 L 9.109375 -12.15625 L 9.125 -12.890625 L 9.328125 -13.359375 L 9.875 -13.484375 L 12.09375 -13.46875 L 12.484375 -13.3125 L 12.65625 -12.90625 L 12.640625 -3.21875 L 12.703125 -2.90625 L 12.640625 -2.296875 L 12.671875 -0.546875 L 12.453125 -0.21875 L 12.078125 0.03125 L 11.28125 -0.015625 L 10.90625 0.015625 L 9.90625 0.015625 L 9.34375 -0.234375 L 9.125 -0.546875 L 9.109375 -4.8125 L 8.921875 -5.171875 L 8.546875 -5.390625 L 8.203125 -5.390625 L 7.796875 -5.4375 L 5.515625 -5.421875 L 5.109375 -5.171875 L 4.9375 -4.765625 L 4.9375 -1.34375 L 4.984375 -0.921875 L 4.9375 -0.5625 L 4.78125 -0.1875 L 4.375 0.03125 L 3.5625 0.015625 L 3.171875 0.0625 L 2.390625 0.015625 L 2 0.03125 L 1.640625 -0.171875 Z M 1.40625 -0.546875 "/></g></g></g><g fill="#3c280d" fill-opacity="1"><g transform="translate(118.901822, 20.223571)"><g><path d="M 11.390625 0.03125 L 10.984375 0 L 10.53125 -0.1875 L 10.15625 -0.484375 L 10.03125 -0.828125 L 9.859375 -1.203125 L 9.5 -1.5 L 9.0625 -1.71875 L 8.640625 -1.65625 L 8.296875 -1.703125 L 6.40625 -1.671875 L 6.0625 -1.734375 L 5.25 -1.65625 L 4.875 -1.71875 L 4.484375 -1.5 L 4.109375 -1.140625 L 3.765625 -0.5 L 3.390625 -0.15625 L 2.953125 -0.015625 L 1.875 0.015625 L 1.484375 -0.015625 L 0.734375 0.015625 L 0.34375 -0.09375 L 0.25 -0.578125 L 0.359375 -0.96875 L 0.75 -1.734375 L 0.84375 -2.078125 L 1.0625 -2.359375 L 1.34375 -3.125 L 1.703125 -3.75 L 1.828125 -4.125 L 2.03125 -4.421875 L 2.140625 -4.84375 L 4.109375 -8.96875 L 4.21875 -9.328125 L 4.4375 -9.6875 L 4.53125 -10.078125 L 4.75 -10.359375 L 5.515625 -12.140625 L 5.6875 -12.40625 L 5.828125 -12.796875 L 6 -13.125 L 6.34375 -13.453125 L 6.96875 -13.65625 L 7.609375 -13.46875 L 7.9375 -13.125 L 8.296875 -12.453125 L 8.40625 -12.09375 L 8.625 -11.75 L 8.734375 -11.359375 L 10.015625 -8.6875 L 10.15625 -8.28125 L 10.5625 -7.5625 L 10.671875 -7.25 L 10.84375 -6.96875 L 10.953125 -6.546875 L 11.15625 -6.171875 L 11.34375 -5.890625 L 12.078125 -4.125 L 12.46875 -3.4375 L 12.734375 -2.71875 L 13.25 -1.71875 L 13.546875 -1 L 13.6875 -0.5625 L 13.625 -0.09375 L 13.078125 0 L 12.484375 0.015625 L 12.125 -0.015625 Z M 7 -4.765625 L 7.78125 -4.78125 L 8.0625 -4.9375 L 8.140625 -5.28125 L 7.234375 -7.40625 L 6.96875 -7.5625 L 6.75 -7.390625 L 5.84375 -5.3125 L 5.859375 -4.9375 L 6.171875 -4.8125 L 6.625 -4.84375 Z M 7 -4.765625 "/></g></g></g><g fill="#3c280d" fill-opacity="1"><g transform="translate(132.906033, 20.223571)"><g><path d="M 11.390625 -0.328125 L 11.09375 -0.578125 L 10.59375 -1.140625 L 7.609375 -4.109375 L 7.28125 -4.328125 L 7.03125 -4.609375 L 5.65625 -5.921875 L 5.40625 -6.25 L 5.15625 -6.34375 L 5.015625 -6.015625 L 4.984375 -5.640625 L 4.953125 -0.75 L 4.765625 -0.15625 L 4.375 0.03125 L 3.96875 0.0625 L 3.21875 0 L 2.796875 0.03125 L 2 0 L 1.609375 -0.140625 L 1.421875 -0.5 L 1.390625 -2.125 L 1.421875 -2.484375 L 1.390625 -5.65625 L 1.453125 -5.984375 L 1.40625 -6.765625 L 1.421875 -7.09375 L 1.421875 -12.953125 L 1.609375 -13.3125 L 2.046875 -13.515625 L 2.625 -13.375 L 3.0625 -13.140625 L 3.359375 -12.90625 L 7.15625 -9.0625 L 7.703125 -8.640625 L 9.0625 -7.28125 L 9.359375 -7.140625 L 9.46875 -7.46875 L 9.515625 -10.921875 L 9.46875 -11.34375 L 9.53125 -12.15625 L 9.46875 -12.46875 L 9.5 -12.875 L 9.703125 -13.28125 L 10.078125 -13.484375 L 12.46875 -13.515625 L 12.859375 -13.296875 L 13.046875 -12.90625 L 13.109375 -10.234375 L 13.046875 -9.765625 L 13.046875 -7.859375 L 13.109375 -7.53125 L 13.0625 -0.484375 L 12.875 -0.09375 L 12.453125 0.03125 L 11.90625 -0.015625 Z M 11.390625 -0.328125 "/></g></g></g><g fill="#3c280d" fill-opacity="1"><g transform="translate(147.450353, 20.223571)"><g><path d="M 6.71875 0.0625 L 6.328125 0.015625 L 5.9375 0.0625 L 5.5 0.03125 L 5.140625 -0.03125 L 4.34375 0.015625 L 4 0 L 3.5625 0.03125 L 2.1875 0.015625 L 1.609375 -0.234375 L 1.453125 -0.75 L 1.40625 -1.171875 L 1.46875 -2.515625 L 1.40625 -2.890625 L 1.453125 -3.265625 L 1.46875 -6.390625 L 1.40625 -6.734375 L 1.421875 -8.3125 L 1.46875 -8.6875 L 1.40625 -9.09375 L 1.453125 -10.984375 L 1.390625 -11.40625 L 1.453125 -12.203125 L 1.40625 -12.921875 L 1.625 -13.328125 L 2.03125 -13.484375 L 2.40625 -13.46875 L 2.796875 -13.515625 L 3.140625 -13.46875 L 3.515625 -13.546875 L 3.890625 -13.484375 L 5.484375 -13.53125 L 5.859375 -13.484375 L 6.1875 -13.515625 L 6.578125 -13.46875 L 7 -13.515625 L 8.5625 -13.53125 L 8.921875 -13.453125 L 9.328125 -13.453125 L 9.703125 -13.296875 L 9.875 -12.921875 L 9.921875 -11.765625 L 9.90625 -11.390625 L 9.921875 -11 L 9.71875 -10.65625 L 9.328125 -10.421875 L 8.953125 -10.40625 L 6.1875 -10.4375 L 5.828125 -10.359375 L 5.46875 -10.375 L 5.03125 -10.234375 L 4.859375 -9.859375 L 4.859375 -9.265625 L 5.015625 -8.671875 L 5.421875 -8.484375 L 6.546875 -8.53125 L 7.359375 -8.46875 L 7.75 -8.515625 L 8.890625 -8.515625 L 9.34375 -8.265625 L 9.53125 -7.71875 L 9.46875 -5.984375 L 9.34375 -5.59375 L 8.953125 -5.4375 L 8.515625 -5.46875 L 8.125 -5.421875 L 7.328125 -5.4375 L 6.59375 -5.40625 L 5.984375 -5.46875 L 5.40625 -5.4375 L 5.0625 -5.234375 L 4.875 -4.828125 L 4.875 -3.609375 L 5.03125 -3.265625 L 5.4375 -3.0625 L 5.859375 -3.109375 L 6.234375 -3.046875 L 6.65625 -3.0625 L 7.046875 -3.03125 L 7.6875 -3.109375 L 8.671875 -3.09375 L 9.03125 -3.03125 L 9.46875 -3.0625 L 9.875 -2.890625 L 10.09375 -2.515625 L 10.09375 -0.5625 L 9.875 -0.15625 L 9.46875 0.015625 Z M 6.71875 0.0625 "/></g></g></g><g fill="#3c280d" fill-opacity="1"><g transform="translate(158.503269, 20.223571)"><g><path d="M 5.1875 0.171875 L 4.40625 0.03125 L 3.640625 -0.234375 L 3.265625 -0.34375 L 2.890625 -0.515625 L 2.625 -0.8125 L 1.953125 -1.234375 L 1.703125 -1.53125 L 1.421875 -1.78125 L 1.0625 -2.484375 L 0.953125 -2.84375 L 0.875 -3.21875 L 0.8125 -3.609375 L 0.96875 -4.015625 L 1.3125 -4.171875 L 2.796875 -4.25 L 3.171875 -4.1875 L 3.515625 -4.21875 L 3.890625 -4.078125 L 4.53125 -3.375 L 4.859375 -3.171875 L 5.1875 -2.984375 L 6.171875 -2.890625 L 6.515625 -2.953125 L 7.125 -2.984375 L 7.78125 -3.28125 L 8.03125 -3.5625 L 8.1875 -4.046875 L 8.0625 -4.53125 L 7.8125 -4.765625 L 7.125 -5.09375 L 4.09375 -5.4375 L 3.390625 -5.671875 L 2.078125 -6.390625 L 1.375 -7.28125 L 1.0625 -7.953125 L 0.921875 -8.71875 L 0.90625 -9.328125 L 0.96875 -10.265625 L 1.3125 -11.328125 L 1.984375 -12.234375 L 2.90625 -12.875 L 3.5625 -13.25 L 4.296875 -13.484375 L 4.65625 -13.546875 L 5.03125 -13.5625 L 5.46875 -13.6875 L 6.953125 -13.640625 L 7.703125 -13.484375 L 8.78125 -13.125 L 10.046875 -12.234375 L 10.484375 -11.65625 L 11.015625 -10.65625 L 11.0625 -10.28125 L 11.140625 -9.921875 L 10.984375 -9.59375 L 10.609375 -9.328125 L 10.265625 -9.359375 L 9.875 -9.359375 L 9.359375 -9.390625 L 8.453125 -9.328125 L 8.03125 -9.578125 L 7.734375 -9.953125 L 7.40625 -10.234375 L 7.0625 -10.453125 L 6.71875 -10.5625 L 6.09375 -10.625 L 5.484375 -10.609375 L 5.140625 -10.53125 L 4.828125 -10.359375 L 4.53125 -10.15625 L 4.296875 -9.90625 L 4.203125 -9.375 L 4.28125 -8.796875 L 4.578125 -8.53125 L 5.28125 -8.1875 L 6.3125 -7.96875 L 6.875 -7.96875 L 7.28125 -7.890625 L 7.65625 -7.875 L 8.046875 -7.8125 L 9.546875 -7.359375 L 9.90625 -7.140625 L 10.203125 -6.984375 L 10.5625 -6.671875 L 11.0625 -6.09375 L 11.265625 -5.796875 L 11.5625 -4.671875 L 11.59375 -4.046875 L 11.484375 -3.09375 L 11.359375 -2.765625 L 11.25 -2.40625 L 11.03125 -1.984375 L 10.84375 -1.71875 L 10.28125 -1.140625 L 8.96875 -0.34375 L 8.609375 -0.171875 L 8.265625 -0.140625 L 7.875 0.015625 L 7.484375 0.078125 L 7.09375 0.171875 L 6.71875 0.21875 Z M 5.1875 0.171875 "/></g></g></g><g fill="#3c280d" fill-opacity="1"><g transform="translate(170.809997, 20.223571)"><g><path d="M 1.40625 -0.546875 L 1.46875 -2.125 L 1.40625 -2.46875 L 1.40625 -8.234375 L 1.453125 -8.625 L 1.421875 -9.09375 L 1.46875 -9.828125 L 1.390625 -10.609375 L 1.421875 -11 L 1.390625 -12.5 L 1.421875 -12.921875 L 1.625 -13.3125 L 2.046875 -13.515625 L 3.953125 -13.46875 L 4.375 -13.515625 L 4.78125 -13.296875 L 4.953125 -12.921875 L 5 -12.21875 L 4.953125 -11.796875 L 4.9375 -10.28125 L 4.953125 -9.9375 L 4.953125 -9.53125 L 4.984375 -9.109375 L 5.171875 -8.734375 L 5.53125 -8.5625 L 6.671875 -8.546875 L 7.03125 -8.59375 L 7.421875 -8.546875 L 8.1875 -8.625 L 8.546875 -8.5625 L 8.9375 -8.78125 L 9.140625 -9.171875 L 9.171875 -10.671875 L 9.109375 -11.03125 L 9.140625 -11.828125 L 9.109375 -12.15625 L 9.125 -12.890625 L 9.328125 -13.359375 L 9.875 -13.484375 L 12.09375 -13.46875 L 12.484375 -13.3125 L 12.65625 -12.90625 L 12.640625 -3.21875 L 12.703125 -2.90625 L 12.640625 -2.296875 L 12.671875 -0.546875 L 12.453125 -0.21875 L 12.078125 0.03125 L 11.28125 -0.015625 L 10.90625 0.015625 L 9.90625 0.015625 L 9.34375 -0.234375 L 9.125 -0.546875 L 9.109375 -4.8125 L 8.921875 -5.171875 L 8.546875 -5.390625 L 8.203125 -5.390625 L 7.796875 -5.4375 L 5.515625 -5.421875 L 5.109375 -5.171875 L 4.9375 -4.765625 L 4.9375 -1.34375 L 4.984375 -0.921875 L 4.9375 -0.5625 L 4.78125 -0.1875 L 4.375 0.03125 L 3.5625 0.015625 L 3.171875 0.0625 L 2.390625 0.015625 L 2 0.03125 L 1.640625 -0.171875 Z M 1.40625 -0.546875 "/></g></g></g><g clip-path="url(#d6c509f975)"><g fill="#3c280d" fill-opacity="1"><g transform="translate(184.929949, 20.223571)"><g><path d="M 11.390625 0.03125 L 10.984375 0 L 10.53125 -0.1875 L 10.15625 -0.484375 L 10.03125 -0.828125 L 9.859375 -1.203125 L 9.5 -1.5 L 9.0625 -1.71875 L 8.640625 -1.65625 L 8.296875 -1.703125 L 6.40625 -1.671875 L 6.0625 -1.734375 L 5.25 -1.65625 L 4.875 -1.71875 L 4.484375 -1.5 L 4.109375 -1.140625 L 3.765625 -0.5 L 3.390625 -0.15625 L 2.953125 -0.015625 L 1.875 0.015625 L 1.484375 -0.015625 L 0.734375 0.015625 L 0.34375 -0.09375 L 0.25 -0.578125 L 0.359375 -0.96875 L 0.75 -1.734375 L 0.84375 -2.078125 L 1.0625 -2.359375 L 1.34375 -3.125 L 1.703125 -3.75 L 1.828125 -4.125 L 2.03125 -4.421875 L 2.140625 -4.84375 L 4.109375 -8.96875 L 4.21875 -9.328125 L 4.4375 -9.6875 L 4.53125 -10.078125 L 4.75 -10.359375 L 5.515625 -12.140625 L 5.6875 -12.40625 L 5.828125 -12.796875 L 6 -13.125 L 6.34375 -13.453125 L 6.96875 -13.65625 L 7.609375 -13.46875 L 7.9375 -13.125 L 8.296875 -12.453125 L 8.40625 -12.09375 L 8.625 -11.75 L 8.734375 -11.359375 L 10.015625 -8.6875 L 10.15625 -8.28125 L 10.5625 -7.5625 L 10.671875 -7.25 L 10.84375 -6.96875 L 10.953125 -6.546875 L 11.15625 -6.171875 L 11.34375 -5.890625 L 12.078125 -4.125 L 12.46875 -3.4375 L 12.734375 -2.71875 L 13.25 -1.71875 L 13.546875 -1 L 13.6875 -0.5625 L 13.625 -0.09375 L 13.078125 0 L 12.484375 0.015625 L 12.125 -0.015625 Z M 7 -4.765625 L 7.78125 -4.78125 L 8.0625 -4.9375 L 8.140625 -5.28125 L 7.234375 -7.40625 L 6.96875 -7.5625 L 6.75 -7.390625 L 5.84375 -5.3125 L 5.859375 -4.9375 L 6.171875 -4.8125 L 6.625 -4.84375 Z M 7 -4.765625 "/></g></g></g></g></svg>